<?xml version="1.0" encoding="utf-8"?>
<!-- Generator: Adobe Illustrator 19.0.0, SVG Export Plug-In . SVG Version: 6.00 Build 0)  -->
<svg version="1.1" id="Lager_1" xmlns="http://www.w3.org/2000/svg" xmlns:xlink="http://www.w3.org/1999/xlink" x="0px" y="0px"
	 viewBox="79 111.5 769.9 571.5" style="enable-background:new 79 111.5 769.9 571.5;" xml:space="preserve">
<style type="text/css">
	.st0{fill:url(#SVGID_1_);stroke:url(#SVGID_2_);stroke-width:10;stroke-miterlimit:10;}
	.st1{fill:url(#SVGID_3_);stroke:url(#SVGID_4_);stroke-width:10;stroke-miterlimit:10;}
	.st2{fill:url(#SVGID_5_);stroke:url(#SVGID_6_);stroke-width:10;stroke-miterlimit:10;}
	.st3{fill:url(#SVGID_7_);stroke:url(#SVGID_8_);stroke-width:10;stroke-miterlimit:10;}
	.st4{fill:url(#SVGID_9_);stroke:url(#SVGID_10_);stroke-width:3;stroke-miterlimit:10;}
	.st5{fill:url(#SVGID_11_);stroke:url(#SVGID_12_);stroke-width:3;stroke-miterlimit:10;}
	.st6{fill:url(#SVGID_13_);stroke:url(#SVGID_14_);stroke-width:3;stroke-miterlimit:10;}
	.st7{fill:url(#SVGID_15_);stroke:url(#SVGID_16_);stroke-width:3;stroke-miterlimit:10;}
	.st8{fill:url(#SVGID_17_);stroke:url(#SVGID_18_);stroke-width:3;stroke-miterlimit:10;}
	.st9{fill:url(#SVGID_19_);stroke:url(#SVGID_20_);stroke-width:3;stroke-miterlimit:10;}
	.st10{fill:url(#SVGID_21_);stroke:url(#SVGID_22_);stroke-width:3;stroke-miterlimit:10;}
	.st11{fill:url(#SVGID_23_);stroke:url(#SVGID_24_);stroke-width:3;stroke-miterlimit:10;}
	.st12{fill:url(#SVGID_25_);stroke:url(#SVGID_26_);stroke-width:3;stroke-miterlimit:10;}
	.st13{fill:url(#SVGID_27_);stroke:url(#SVGID_28_);stroke-width:3;stroke-miterlimit:10;}
	.st14{fill:url(#SVGID_29_);stroke:url(#SVGID_30_);stroke-width:3;stroke-miterlimit:10;}
	.st15{fill:url(#SVGID_31_);stroke:url(#SVGID_32_);stroke-width:3;stroke-miterlimit:10;}
	.st16{fill:url(#SVGID_33_);stroke:url(#SVGID_34_);stroke-width:3;stroke-miterlimit:10;}
	.st17{fill:url(#SVGID_35_);stroke:url(#SVGID_36_);stroke-width:10;stroke-miterlimit:10;}
	.st18{fill:url(#SVGID_37_);stroke:url(#SVGID_38_);stroke-width:10;stroke-miterlimit:10;}
	.st19{fill:url(#SVGID_39_);stroke:url(#SVGID_40_);stroke-width:10;stroke-miterlimit:10;}
</style>
<linearGradient id="SVGID_1_" gradientUnits="userSpaceOnUse" x1="453.5977" y1="425.7629" x2="453.5977" y2="138.2438" gradientTransform="matrix(1 0 0 -1 -312.7352 602.6792)">
	<stop  offset="0" style="stop-color:#5F3533"/>
	<stop  offset="0.2245" style="stop-color:#CB9B51"/>
	<stop  offset="0.45" style="stop-color:#F6E27A"/>
	<stop  offset="0.5" style="stop-color:#F6F2C0"/>
	<stop  offset="0.55" style="stop-color:#F6E27A"/>
	<stop  offset="0.7806" style="stop-color:#CB9B51"/>
	<stop  offset="1" style="stop-color:#5F3533"/>
</linearGradient>
<linearGradient id="SVGID_2_" gradientUnits="userSpaceOnUse" x1="85.8407" y1="318.9995" x2="203.9356" y2="318.9995">
	<stop  offset="0" style="stop-color:#5F3533"/>
	<stop  offset="0.2245" style="stop-color:#CB9B51"/>
	<stop  offset="0.45" style="stop-color:#F6E27A"/>
	<stop  offset="0.5" style="stop-color:#F6F2C0"/>
	<stop  offset="0.55" style="stop-color:#F6E27A"/>
	<stop  offset="0.7806" style="stop-color:#CB9B51"/>
	<stop  offset="1" style="stop-color:#5F3533"/>
</linearGradient>
<path class="st0" d="M90.8,464.2V188.5l21.6-11.6v279.3h69.4l9.1,8.2L90.8,464.2z"/>
<linearGradient id="SVGID_3_" gradientUnits="userSpaceOnUse" x1="576.7581" y1="318.1062" x2="576.7581" y2="137.7925" gradientTransform="matrix(1 0 0 -1 -312.7352 602.6792)">
	<stop  offset="0" style="stop-color:#5F3533"/>
	<stop  offset="0.2245" style="stop-color:#CB9B51"/>
	<stop  offset="0.45" style="stop-color:#F6E27A"/>
	<stop  offset="0.5" style="stop-color:#F6F2C0"/>
	<stop  offset="0.55" style="stop-color:#F6E27A"/>
	<stop  offset="0.7806" style="stop-color:#CB9B51"/>
	<stop  offset="1" style="stop-color:#5F3533"/>
</linearGradient>
<linearGradient id="SVGID_4_" gradientUnits="userSpaceOnUse" x1="171.8975" y1="374.7298" x2="356.1481" y2="374.7298">
	<stop  offset="0" style="stop-color:#5F3533"/>
	<stop  offset="0.2245" style="stop-color:#CB9B51"/>
	<stop  offset="0.45" style="stop-color:#F6E27A"/>
	<stop  offset="0.5" style="stop-color:#F6F2C0"/>
	<stop  offset="0.55" style="stop-color:#F6E27A"/>
	<stop  offset="0.7806" style="stop-color:#CB9B51"/>
	<stop  offset="1" style="stop-color:#5F3533"/>
</linearGradient>
<path class="st1" d="M264,464.9c-48.1,0-87.1-37.3-87.1-90.4s39-90,87.1-90s87.1,36.9,87.1,90S312.2,464.9,264,464.9z M264,295.2
	c-39.8,0-60.7,36.4-60.7,79.3c0,42.8,20.8,81.5,60.7,81.5c39.9,0,60.7-38.7,60.7-81.5C324.7,331.6,303.9,295.2,264,295.2z"/>
<linearGradient id="SVGID_5_" gradientUnits="userSpaceOnUse" x1="895.23" y1="426.3646" x2="895.23" y2="136.4387" gradientTransform="matrix(1 0 0 -1 -312.7352 602.6792)">
	<stop  offset="0" style="stop-color:#5F3533"/>
	<stop  offset="0.2245" style="stop-color:#CB9B51"/>
	<stop  offset="0.45" style="stop-color:#F6E27A"/>
	<stop  offset="0.5" style="stop-color:#F6F2C0"/>
	<stop  offset="0.55" style="stop-color:#F6E27A"/>
	<stop  offset="0.7806" style="stop-color:#CB9B51"/>
	<stop  offset="1" style="stop-color:#5F3533"/>
</linearGradient>
<linearGradient id="SVGID_6_" gradientUnits="userSpaceOnUse" x1="566.4705" y1="321.1175" x2="598.5189" y2="321.1175">
	<stop  offset="0" style="stop-color:#5F3533"/>
	<stop  offset="0.2245" style="stop-color:#CB9B51"/>
	<stop  offset="0.45" style="stop-color:#F6E27A"/>
	<stop  offset="0.5" style="stop-color:#F6F2C0"/>
	<stop  offset="0.55" style="stop-color:#F6E27A"/>
	<stop  offset="0.7806" style="stop-color:#CB9B51"/>
	<stop  offset="1" style="stop-color:#5F3533"/>
</linearGradient>
<path class="st2" d="M571.5,466.2V186.6l22-10.3v280.6L571.5,466.2z"/>
<linearGradient id="SVGID_7_" gradientUnits="userSpaceOnUse" x1="946.1421" y1="427.3174" x2="946.1421" y2="136.6894" gradientTransform="matrix(1 0 0 -1 -312.7352 602.6792)">
	<stop  offset="0" style="stop-color:#5F3533"/>
	<stop  offset="0.2245" style="stop-color:#CB9B51"/>
	<stop  offset="0.45" style="stop-color:#F6E27A"/>
	<stop  offset="0.5" style="stop-color:#F6F2C0"/>
	<stop  offset="0.55" style="stop-color:#F6E27A"/>
	<stop  offset="0.7806" style="stop-color:#CB9B51"/>
	<stop  offset="1" style="stop-color:#5F3533"/>
</linearGradient>
<linearGradient id="SVGID_8_" gradientUnits="userSpaceOnUse" x1="617.334" y1="320.7071" x2="649.4796" y2="320.7071">
	<stop  offset="0" style="stop-color:#5F3533"/>
	<stop  offset="0.2245" style="stop-color:#CB9B51"/>
	<stop  offset="0.45" style="stop-color:#F6E27A"/>
	<stop  offset="0.5" style="stop-color:#F6F2C0"/>
	<stop  offset="0.55" style="stop-color:#F6E27A"/>
	<stop  offset="0.7806" style="stop-color:#CB9B51"/>
	<stop  offset="1" style="stop-color:#5F3533"/>
</linearGradient>
<path class="st3" d="M622.3,466V184.4l22.1-9v281.4L622.3,466z"/>
<g transform="matrix(1, 0, 0, 1, -312.7352443320109, -194.32081907095323)">
	
		<linearGradient id="SVGID_9_" gradientUnits="userSpaceOnUse" x1="746.8229" y1="262.094" x2="746.8229" y2="222.1803" gradientTransform="matrix(1 0 0 -1 -312.7352 991.3208)">
		<stop  offset="0" style="stop-color:#000000"/>
		<stop  offset="1" style="stop-color:#000000"/>
	</linearGradient>
	<linearGradient id="SVGID_10_" gradientUnits="userSpaceOnUse" x1="407.3336" y1="749.1837" x2="460.8416" y2="749.1837">
		<stop  offset="0" style="stop-color:#5F3533"/>
		<stop  offset="0.2245" style="stop-color:#CB9B51"/>
		<stop  offset="0.45" style="stop-color:#F6E27A"/>
		<stop  offset="0.5" style="stop-color:#F6F2C0"/>
		<stop  offset="0.55" style="stop-color:#F6E27A"/>
		<stop  offset="0.7806" style="stop-color:#CB9B51"/>
		<stop  offset="1" style="stop-color:#5F3533"/>
	</linearGradient>
	<path class="st4" d="M434.1,729.2c14,0,25.3,9,25.3,20c0,11-11.3,20-25.3,20c-14,0-25.3-8.9-25.3-20
		C408.7,738.3,420.1,729.2,434.1,729.2z M434.1,762.5c9.9,0,18-5.8,18-13.2s-8-13.3-18-13.3c-9.9,0-18,5.9-18,13.3
		C416.1,756.6,424.2,762.5,434.1,762.5z"/>
	
		<linearGradient id="SVGID_11_" gradientUnits="userSpaceOnUse" x1="808.7433" y1="260.69" x2="808.7433" y2="223.484" gradientTransform="matrix(1 0 0 -1 -312.7352 991.3208)">
		<stop  offset="0" style="stop-color:#000000"/>
		<stop  offset="1" style="stop-color:#000000"/>
	</linearGradient>
	<linearGradient id="SVGID_12_" gradientUnits="userSpaceOnUse" x1="475.325" y1="749.2338" x2="517.8912" y2="749.2338">
		<stop  offset="0" style="stop-color:#5F3533"/>
		<stop  offset="0.2245" style="stop-color:#CB9B51"/>
		<stop  offset="0.45" style="stop-color:#F6E27A"/>
		<stop  offset="0.5" style="stop-color:#F6F2C0"/>
		<stop  offset="0.55" style="stop-color:#F6E27A"/>
		<stop  offset="0.7806" style="stop-color:#CB9B51"/>
		<stop  offset="1" style="stop-color:#5F3533"/>
	</linearGradient>
	<path class="st5" d="M483.8,767.8h-7v-37.2h21.9c6.6,0,14.2,2.6,14.2,10.6c0,5.7-3.6,8.6-8,9.9l10.3,16.5h-8.4l-9.7-15.7h-13.3
		L483.8,767.8L483.8,767.8z M483.8,745.4H498c5.4,0,7.4-1.4,7.4-4.1c0-2.6-2-4-7.4-4h-14.2C483.8,737.2,483.8,745.4,483.8,745.4z"/>
	
		<linearGradient id="SVGID_13_" gradientUnits="userSpaceOnUse" x1="865.0299" y1="262.0939" x2="865.0299" y2="222.1802" gradientTransform="matrix(1 0 0 -1 -312.7352 991.3208)">
		<stop  offset="0" style="stop-color:#000000"/>
		<stop  offset="1" style="stop-color:#000000"/>
	</linearGradient>
	<linearGradient id="SVGID_14_" gradientUnits="userSpaceOnUse" x1="526.9979" y1="749.1837" x2="577.5915" y2="749.1837">
		<stop  offset="0" style="stop-color:#5F3533"/>
		<stop  offset="0.2245" style="stop-color:#CB9B51"/>
		<stop  offset="0.45" style="stop-color:#F6E27A"/>
		<stop  offset="0.5" style="stop-color:#F6F2C0"/>
		<stop  offset="0.55" style="stop-color:#F6E27A"/>
		<stop  offset="0.7806" style="stop-color:#CB9B51"/>
		<stop  offset="1" style="stop-color:#5F3533"/>
	</linearGradient>
	<path class="st6" d="M576.1,751c0,12.2-10.1,18.2-22.3,18.2c-14,0-25.3-8.9-25.3-20s11.3-20,25.3-20c6.3,0,12.3,2,17.1,5.4v9.8
		c-4.1-5.2-10.5-8.5-17.1-8.5c-9.9,0-18,5.9-18,13.3s8,13.2,18,13.2c6.2,0,13.4-1.9,14.7-6.8h-11v-6.6H576L576.1,751L576.1,751z"/>
	
		<linearGradient id="SVGID_15_" gradientUnits="userSpaceOnUse" x1="923.6962" y1="263.3977" x2="923.6962" y2="223.5843" gradientTransform="matrix(1 0 0 -1 -312.7352 991.3208)">
		<stop  offset="0" style="stop-color:#000000"/>
		<stop  offset="1" style="stop-color:#000000"/>
	</linearGradient>
	<linearGradient id="SVGID_16_" gradientUnits="userSpaceOnUse" x1="583.3905" y1="747.164" x2="638.5316" y2="747.164">
		<stop  offset="0" style="stop-color:#5F3533"/>
		<stop  offset="0.2245" style="stop-color:#CB9B51"/>
		<stop  offset="0.45" style="stop-color:#F6E27A"/>
		<stop  offset="0.5" style="stop-color:#F6F2C0"/>
		<stop  offset="0.55" style="stop-color:#F6E27A"/>
		<stop  offset="0.7806" style="stop-color:#CB9B51"/>
		<stop  offset="1" style="stop-color:#5F3533"/>
	</linearGradient>
	<path class="st7" d="M620.6,756.9h-19.3l-6.8,10.8h-8.4l24.9-39.8l24.9,39.8h-8.5L620.6,756.9z M605.4,750.3h11.1l-5.5-8.8
		L605.4,750.3z"/>
	
		<linearGradient id="SVGID_17_" gradientUnits="userSpaceOnUse" x1="983.9652" y1="263.6985" x2="983.9652" y2="220.676" gradientTransform="matrix(1 0 0 -1 -312.7352 991.3208)">
		<stop  offset="0" style="stop-color:#000000"/>
		<stop  offset="1" style="stop-color:#000000"/>
	</linearGradient>
	<linearGradient id="SVGID_18_" gradientUnits="userSpaceOnUse" x1="648.7985" y1="749.116" x2="693.6614" y2="749.116">
		<stop  offset="0" style="stop-color:#5F3533"/>
		<stop  offset="0.2245" style="stop-color:#CB9B51"/>
		<stop  offset="0.45" style="stop-color:#F6E27A"/>
		<stop  offset="0.5" style="stop-color:#F6F2C0"/>
		<stop  offset="0.55" style="stop-color:#F6E27A"/>
		<stop  offset="0.7806" style="stop-color:#CB9B51"/>
		<stop  offset="1" style="stop-color:#5F3533"/>
	</linearGradient>
	<path class="st8" d="M650.3,767.8v-40.2l34.9,28.3v-25.3h7v40l-34.9-27.8v25L650.3,767.8L650.3,767.8z"/>
	
		<linearGradient id="SVGID_19_" gradientUnits="userSpaceOnUse" x1="1028.6934" y1="260.69" x2="1028.6934" y2="223.484" gradientTransform="matrix(1 0 0 -1 -312.7352 991.3208)">
		<stop  offset="0" style="stop-color:#000000"/>
		<stop  offset="1" style="stop-color:#000000"/>
	</linearGradient>
	<linearGradient id="SVGID_20_" gradientUnits="userSpaceOnUse" x1="710.9615" y1="749.2338" x2="720.9548" y2="749.2338">
		<stop  offset="0" style="stop-color:#5F3533"/>
		<stop  offset="0.2245" style="stop-color:#CB9B51"/>
		<stop  offset="0.45" style="stop-color:#F6E27A"/>
		<stop  offset="0.5" style="stop-color:#F6F2C0"/>
		<stop  offset="0.55" style="stop-color:#F6E27A"/>
		<stop  offset="0.7806" style="stop-color:#CB9B51"/>
		<stop  offset="1" style="stop-color:#5F3533"/>
	</linearGradient>
	<path class="st9" d="M712.5,767.8v-37.2h7v37.2H712.5z"/>
	
		<linearGradient id="SVGID_21_" gradientUnits="userSpaceOnUse" x1="1071.819" y1="262.0939" x2="1071.819" y2="222.1802" gradientTransform="matrix(1 0 0 -1 -312.7352 991.3208)">
		<stop  offset="0" style="stop-color:#000000"/>
		<stop  offset="1" style="stop-color:#000000"/>
	</linearGradient>
	<linearGradient id="SVGID_22_" gradientUnits="userSpaceOnUse" x1="736.4094" y1="749.1837" x2="781.758" y2="749.1837">
		<stop  offset="0" style="stop-color:#5F3533"/>
		<stop  offset="0.2245" style="stop-color:#CB9B51"/>
		<stop  offset="0.45" style="stop-color:#F6E27A"/>
		<stop  offset="0.5" style="stop-color:#F6F2C0"/>
		<stop  offset="0.55" style="stop-color:#F6E27A"/>
		<stop  offset="0.7806" style="stop-color:#CB9B51"/>
		<stop  offset="1" style="stop-color:#5F3533"/>
	</linearGradient>
	<path class="st10" d="M763.2,762.5c6.6,0,13-3.1,17.1-8.4v9.7c-4.9,3.4-10.8,5.3-17.1,5.3c-14,0-25.3-8.9-25.3-20s11.3-20,25.3-20
		c6.3,0,12.3,2,17.1,5.4v9.8c-4.1-5.2-10.5-8.5-17.1-8.5c-9.9,0-18,5.9-18,13.3C745.2,756.6,753.3,762.5,763.2,762.5z"/>
	
		<linearGradient id="SVGID_23_" gradientUnits="userSpaceOnUse" x1="1164.5778" y1="260.69" x2="1164.5778" y2="223.484" gradientTransform="matrix(1 0 0 -1 -312.7352 991.3208)">
		<stop  offset="0" style="stop-color:#000000"/>
		<stop  offset="1" style="stop-color:#000000"/>
	</linearGradient>
	<linearGradient id="SVGID_24_" gradientUnits="userSpaceOnUse" x1="830.431" y1="749.2338" x2="873.2542" y2="749.2338">
		<stop  offset="0" style="stop-color:#5F3533"/>
		<stop  offset="0.2245" style="stop-color:#CB9B51"/>
		<stop  offset="0.45" style="stop-color:#F6E27A"/>
		<stop  offset="0.5" style="stop-color:#F6F2C0"/>
		<stop  offset="0.55" style="stop-color:#F6E27A"/>
		<stop  offset="0.7806" style="stop-color:#CB9B51"/>
		<stop  offset="1" style="stop-color:#5F3533"/>
	</linearGradient>
	<path class="st11" d="M857.2,767.8h-25.3v-37.2h21.7c6.6,0,15.1,1.5,15.1,10.4c0,2-1.1,4.2-2.4,5.7c3.2,1.8,5.5,5.7,5.5,9.4
		C871.8,764.5,863.9,767.8,857.2,767.8z M838.9,737.2v7.4h15.8c2.6,0,6.4-0.5,6.4-3.5c0-3.7-4.7-3.9-7.8-3.9H838.9z M857,761.1
		c3.2,0,7.4-0.8,7.4-4.8s-4-5-7.2-5h-18.3v9.8H857z"/>
	
		<linearGradient id="SVGID_25_" gradientUnits="userSpaceOnUse" x1="1219.8445" y1="260.6899" x2="1219.8445" y2="223.6845" gradientTransform="matrix(1 0 0 -1 -312.7352 991.3208)">
		<stop  offset="0" style="stop-color:#000000"/>
		<stop  offset="1" style="stop-color:#000000"/>
	</linearGradient>
	<linearGradient id="SVGID_26_" gradientUnits="userSpaceOnUse" x1="887.6403" y1="749.1336" x2="926.5783" y2="749.1336">
		<stop  offset="0" style="stop-color:#5F3533"/>
		<stop  offset="0.2245" style="stop-color:#CB9B51"/>
		<stop  offset="0.45" style="stop-color:#F6E27A"/>
		<stop  offset="0.5" style="stop-color:#F6F2C0"/>
		<stop  offset="0.55" style="stop-color:#F6E27A"/>
		<stop  offset="0.7806" style="stop-color:#CB9B51"/>
		<stop  offset="1" style="stop-color:#5F3533"/>
	</linearGradient>
	<path class="st12" d="M889.2,730.6h35.8v6.6h-28.8v7.7h24.2v6.6h-24.3v9.4H925v6.6h-35.8L889.2,730.6L889.2,730.6z"/>
	
		<linearGradient id="SVGID_27_" gradientUnits="userSpaceOnUse" x1="1274.917" y1="263.3977" x2="1274.917" y2="223.5843" gradientTransform="matrix(1 0 0 -1 -312.7352 991.3208)">
		<stop  offset="0" style="stop-color:#000000"/>
		<stop  offset="1" style="stop-color:#000000"/>
	</linearGradient>
	<linearGradient id="SVGID_28_" gradientUnits="userSpaceOnUse" x1="934.6113" y1="747.164" x2="989.7523" y2="747.164">
		<stop  offset="0" style="stop-color:#5F3533"/>
		<stop  offset="0.2245" style="stop-color:#CB9B51"/>
		<stop  offset="0.45" style="stop-color:#F6E27A"/>
		<stop  offset="0.5" style="stop-color:#F6F2C0"/>
		<stop  offset="0.55" style="stop-color:#F6E27A"/>
		<stop  offset="0.7806" style="stop-color:#CB9B51"/>
		<stop  offset="1" style="stop-color:#5F3533"/>
	</linearGradient>
	<path class="st13" d="M971.8,756.9h-19.3l-6.8,10.8h-8.4l24.9-39.8l24.9,39.8h-8.4L971.8,756.9z M956.6,750.3h11.1l-5.5-8.8
		L956.6,750.3z"/>
	
		<linearGradient id="SVGID_29_" gradientUnits="userSpaceOnUse" x1="1329.0668" y1="260.6899" x2="1329.0668" y2="222.1802" gradientTransform="matrix(1 0 0 -1 -312.7352 991.3208)">
		<stop  offset="0" style="stop-color:#000000"/>
		<stop  offset="1" style="stop-color:#000000"/>
	</linearGradient>
	<linearGradient id="SVGID_30_" gradientUnits="userSpaceOnUse" x1="995.1628" y1="749.8857" x2="1037.5004" y2="749.8857">
		<stop  offset="0" style="stop-color:#5F3533"/>
		<stop  offset="0.2245" style="stop-color:#CB9B51"/>
		<stop  offset="0.45" style="stop-color:#F6E27A"/>
		<stop  offset="0.5" style="stop-color:#F6F2C0"/>
		<stop  offset="0.55" style="stop-color:#F6E27A"/>
		<stop  offset="0.7806" style="stop-color:#CB9B51"/>
		<stop  offset="1" style="stop-color:#5F3533"/>
	</linearGradient>
	<path class="st14" d="M1029,730.6h7v20.2c0,12.7-9.9,18.4-19.7,18.4c-9.9,0-19.6-5.6-19.6-18.4v-20.2h7v19.2
		c0,8.7,6.2,12.6,12.6,12.6s12.6-3.9,12.6-12.6L1029,730.6L1029,730.6z"/>
	
		<linearGradient id="SVGID_31_" gradientUnits="userSpaceOnUse" x1="1383.5565" y1="260.69" x2="1383.5565" y2="223.5843" gradientTransform="matrix(1 0 0 -1 -312.7352 991.3208)">
		<stop  offset="0" style="stop-color:#000000"/>
		<stop  offset="1" style="stop-color:#000000"/>
	</linearGradient>
	<linearGradient id="SVGID_32_" gradientUnits="userSpaceOnUse" x1="1048.3899" y1="749.1837" x2="1093.2527" y2="749.1837">
		<stop  offset="0" style="stop-color:#5F3533"/>
		<stop  offset="0.2245" style="stop-color:#CB9B51"/>
		<stop  offset="0.45" style="stop-color:#F6E27A"/>
		<stop  offset="0.5" style="stop-color:#F6F2C0"/>
		<stop  offset="0.55" style="stop-color:#F6E27A"/>
		<stop  offset="0.7806" style="stop-color:#CB9B51"/>
		<stop  offset="1" style="stop-color:#5F3533"/>
	</linearGradient>
	<path class="st15" d="M1049.9,737.2v-6.6h41.9v6.6h-17.4v30.5h-7v-30.5H1049.9z"/>
	
		<linearGradient id="SVGID_33_" gradientUnits="userSpaceOnUse" x1="1438.5319" y1="260.6899" x2="1438.5319" y2="223.5842" gradientTransform="matrix(1 0 0 -1 -312.7352 991.3208)">
		<stop  offset="0" style="stop-color:#000000"/>
		<stop  offset="1" style="stop-color:#000000"/>
	</linearGradient>
	<linearGradient id="SVGID_34_" gradientUnits="userSpaceOnUse" x1="1097.4541" y1="749.1837" x2="1154.1509" y2="749.1837">
		<stop  offset="0" style="stop-color:#5F3533"/>
		<stop  offset="0.2245" style="stop-color:#CB9B51"/>
		<stop  offset="0.45" style="stop-color:#F6E27A"/>
		<stop  offset="0.5" style="stop-color:#F6F2C0"/>
		<stop  offset="0.55" style="stop-color:#F6E27A"/>
		<stop  offset="0.7806" style="stop-color:#CB9B51"/>
		<stop  offset="1" style="stop-color:#5F3533"/>
	</linearGradient>
	<path class="st16" d="M1125.7,745.2l14.7-14.5h10.1l-21.3,21.2v15.9h-7v-15.9l-21.2-21.2h10.1L1125.7,745.2z"/>
</g>
<linearGradient id="SVGID_35_" gradientUnits="userSpaceOnUse" x1="771.6204" y1="315.1979" x2="771.6204" y2="135.0849" gradientTransform="matrix(1 0 0 -1 -312.7352 602.6792)">
	<stop  offset="0" style="stop-color:#5F3533"/>
	<stop  offset="0.2245" style="stop-color:#CB9B51"/>
	<stop  offset="0.45" style="stop-color:#F6E27A"/>
	<stop  offset="0.5" style="stop-color:#F6F2C0"/>
	<stop  offset="0.55" style="stop-color:#F6E27A"/>
	<stop  offset="0.7806" style="stop-color:#CB9B51"/>
	<stop  offset="1" style="stop-color:#5F3533"/>
</linearGradient>
<linearGradient id="SVGID_36_" gradientUnits="userSpaceOnUse" x1="369.1395" y1="377.5378" x2="550.6163" y2="377.5378">
	<stop  offset="0" style="stop-color:#5F3533"/>
	<stop  offset="0.2245" style="stop-color:#CB9B51"/>
	<stop  offset="0.45" style="stop-color:#F6E27A"/>
	<stop  offset="0.5" style="stop-color:#F6F2C0"/>
	<stop  offset="0.55" style="stop-color:#F6E27A"/>
	<stop  offset="0.7806" style="stop-color:#CB9B51"/>
	<stop  offset="1" style="stop-color:#5F3533"/>
</linearGradient>
<path class="st17" d="M538.8,419.2c-0.1,0-0.1,0-0.2,0c-2.4,0-20.5,0.1-20.8,0.1c-10.9,23.1-30.9,39.4-56.7,39.4
	c-20.4,0-36.5-8.1-48.7-25.8c-12.1-17.7-15-37.3-15-37.3l146.2-54.5c-19.4-38.4-49-53.7-82.5-53.7c-48,0-87,36.9-87,89.9
	c0,53,40.7,90.3,88.8,90.3C496.9,467.6,524.6,448.8,538.8,419.2C538.8,419.2,538.8,419.2,538.8,419.2z M461.1,298.1
	c22,0,39.6,14.7,51.2,31.8l-117,47.3C395.2,334.4,421.2,298.1,461.1,298.1z"/>
<linearGradient id="SVGID_37_" gradientUnits="userSpaceOnUse" x1="1054.7533" y1="315.1979" x2="1054.7533" y2="135.0849" gradientTransform="matrix(1 0 0 -1 -312.7352 602.6792)">
	<stop  offset="0" style="stop-color:#5F3533"/>
	<stop  offset="0.2245" style="stop-color:#CB9B51"/>
	<stop  offset="0.45" style="stop-color:#F6E27A"/>
	<stop  offset="0.5" style="stop-color:#F6F2C0"/>
	<stop  offset="0.55" style="stop-color:#F6E27A"/>
	<stop  offset="0.7806" style="stop-color:#CB9B51"/>
	<stop  offset="1" style="stop-color:#5F3533"/>
</linearGradient>
<linearGradient id="SVGID_38_" gradientUnits="userSpaceOnUse" x1="652.2725" y1="377.5378" x2="833.7492" y2="377.5378">
	<stop  offset="0" style="stop-color:#5F3533"/>
	<stop  offset="0.2245" style="stop-color:#CB9B51"/>
	<stop  offset="0.45" style="stop-color:#F6E27A"/>
	<stop  offset="0.5" style="stop-color:#F6F2C0"/>
	<stop  offset="0.55" style="stop-color:#F6E27A"/>
	<stop  offset="0.7806" style="stop-color:#CB9B51"/>
	<stop  offset="1" style="stop-color:#5F3533"/>
</linearGradient>
<path class="st18" d="M821.9,419.2c-0.1,0-0.1,0-0.2,0c-2.4,0-20.5,0.1-20.8,0.1c-10.9,23.1-30.9,39.4-56.7,39.4
	c-20.4,0-36.5-8.1-48.7-25.8c-12.1-17.7-15-37.3-15-37.3l146.2-54.5c-19.4-38.4-49-53.7-82.5-53.7c-48,0-87,36.9-87,89.9
	c0,53,40.7,90.3,88.8,90.3C780,467.6,807.7,448.8,821.9,419.2C822,419.2,821.9,419.2,821.9,419.2z M744.2,298.1
	c22,0,39.6,14.7,51.2,31.8l-117,47.3C678.3,334.4,704.4,298.1,744.2,298.1z"/>
<linearGradient id="SVGID_39_" gradientUnits="userSpaceOnUse" x1="779.4324" y1="111.598" x2="779.4324" y2="104.8789" gradientTransform="matrix(1 0 0 -1 -312.7352 602.6792)">
	<stop  offset="0" style="stop-color:#000000"/>
	<stop  offset="1" style="stop-color:#000000"/>
</linearGradient>
<linearGradient id="SVGID_40_" gradientUnits="userSpaceOnUse" x1="84.452" y1="494.4408" x2="848.9423" y2="494.4408">
	<stop  offset="0" style="stop-color:#5F3533"/>
	<stop  offset="0.2245" style="stop-color:#CB9B51"/>
	<stop  offset="0.45" style="stop-color:#F6E27A"/>
	<stop  offset="0.5" style="stop-color:#F6F2C0"/>
	<stop  offset="0.55" style="stop-color:#F6E27A"/>
	<stop  offset="0.7806" style="stop-color:#CB9B51"/>
	<stop  offset="1" style="stop-color:#5F3533"/>
</linearGradient>
<polygon class="st19" points="837,497.8 92.8,497.8 96.4,491.1 840.6,491.1 "/>
</svg>
