<?xml version="1.0" encoding="utf-8"?>
<svg viewBox="-268.135009765625 -190.02099609375 769.9000244140625 300" xmlns="http://www.w3.org/2000/svg">
  <defs>
    <pattern id="pattern-0" x="0" y="0" width="20" height="20" patternUnits="userSpaceOnUse" viewBox="0 0 100 100">
      <path d="M 0 0 L 50 0 L 50 100 L 0 100 Z" style="fill: black;"/>
    </pattern>
    <linearGradient id="gradient-0" gradientUnits="userSpaceOnUse" x1="-212.935" y1="-190.021" x2="-212.935" y2="96.679" spreadMethod="pad">
      <stop offset="0" style="stop-color: rgba(203, 169, 105, 1)"/>
      <stop offset="1" style="stop-color: rgba(153, 118, 53, 1)"/>
    </linearGradient>
    <linearGradient id="gradient-1" gradientUnits="userSpaceOnUse" x1="-93.435" y1="-80.121" x2="-93.435" y2="99.679" spreadMethod="pad">
      <stop offset="0" style="stop-color: rgba(203, 169, 105, 1)"/>
      <stop offset="1" style="stop-color: rgba(153, 118, 53, 1)"/>
    </linearGradient>
    <linearGradient id="gradient-2" gradientUnits="userSpaceOnUse" x1="104.915" y1="-77.221" x2="104.915" y2="102.379" spreadMethod="pad">
      <stop offset="0" style="stop-color: rgba(203, 169, 105, 1)"/>
      <stop offset="1" style="stop-color: rgba(153, 118, 53, 1)"/>
    </linearGradient>
    <linearGradient id="gradient-3" gradientUnits="userSpaceOnUse" x1="232.115" y1="-188.321" x2="232.115" y2="100.779" spreadMethod="pad">
      <stop offset="0" style="stop-color: rgba(203, 169, 105, 1)"/>
      <stop offset="1" style="stop-color: rgba(153, 118, 53, 1)"/>
    </linearGradient>
    <linearGradient id="gradient-4" gradientUnits="userSpaceOnUse" x1="286.865" y1="-189.021" x2="286.865" y2="100.779" spreadMethod="pad">
      <stop offset="0" style="stop-color: rgba(203, 169, 105, 1)"/>
      <stop offset="1" style="stop-color: rgba(153, 118, 53, 1)"/>
    </linearGradient>
    <linearGradient id="gradient-5" gradientUnits="userSpaceOnUse" x1="411.915" y1="-77.221" x2="411.915" y2="102.379" spreadMethod="pad">
      <stop offset="0" style="stop-color: rgba(203, 169, 105, 1)"/>
      <stop offset="1" style="stop-color: rgba(153, 118, 53, 1)"/>
    </linearGradient>
  </defs>
  <path class="st0" d="M -264.435 96.479 L -264.435 -178.421 L -242.235 -190.021 L -242.235 88.479 L -170.835 88.479 L -161.435 96.679 L -264.435 96.479 Z" style="stroke-width: 0; stroke-opacity: 0; fill: url(#gradient-0); paint-order: fill markers;"/>
  <path class="st0" d="M -93.435 99.679 C -142.935 99.679 -183.135 62.479 -183.135 9.579 C -183.135 -43.321 -142.935 -80.121 -93.435 -80.121 C -43.935 -80.121 -3.735 -43.321 -3.735 9.579 C -3.735 62.479 -43.835 99.679 -93.435 99.679 Z M -93.435 -69.521 C -134.435 -69.521 -155.935 -33.221 -155.935 9.579 C -155.935 52.279 -134.535 90.879 -93.435 90.879 C -52.335 90.879 -30.935 52.279 -30.935 9.579 C -30.935 -33.221 -52.335 -69.521 -93.435 -69.521 Z" style="fill: url(#gradient-1); paint-order: fill markers;"/>
  <path class="st0" d="M 220.765 100.779 L 220.765 -178.021 L 243.465 -188.321 L 243.465 91.479 L 220.765 100.779 Z" style="fill: url(#gradient-3); paint-order: fill markers;"/>
  <path class="st0" d="M 275.465 100.779 L 275.465 -180.021 L 298.265 -189.021 L 298.265 91.579 L 275.465 100.779 Z" style="fill: url(#gradient-4); paint-order: fill markers;"/>
  <g transform="matrix(1, 0, 0, 1, -312.7352443320109, -194.32081907095323)">
    <path class="st0" d="M74,370.8c14.4,0,26,9,26,19.9c0,11-11.6,19.9-26,19.9c-14.4,0-26-8.9-26-19.9C47.9,379.8,59.6,370.8,74,370.8&#10;&#9;&#9;z M74,404c10.2,0,18.5-5.8,18.5-13.2c0-7.4-8.2-13.3-18.5-13.3c-10.2,0-18.5,5.9-18.5,13.3C55.5,398.1,63.8,404,74,404z" style="fill: rgb(203, 169, 105);"/>
    <path class="st0" d="M125.2,409.3H118v-37.1h22.5c6.8,0,14.6,2.6,14.6,10.6c0,5.7-3.7,8.6-8.2,9.9l10.6,16.5h-8.6l-10-15.7h-13.7&#10;&#9;&#9;V409.3z M125.2,386.9h14.6c5.6,0,7.6-1.4,7.6-4.1c0-2.6-2.1-4-7.6-4h-14.6V386.9z" style="fill: rgb(203, 169, 105);"/>
    <path class="st0" d="M220.2,392.5c0,12.2-10.4,18.1-23,18.1c-14.4,0-26-8.9-26-19.9c0-11,11.6-19.9,26-19.9c6.5,0,12.7,2,17.6,5.4&#10;&#9;&#9;v9.8c-4.2-5.2-10.8-8.5-17.6-8.5c-10.2,0-18.5,5.9-18.5,13.3c0,7.4,8.2,13.2,18.5,13.2c6.4,0,13.8-1.9,15.1-6.8H201v-6.6h19.1&#10;&#9;&#9;V392.5z" style="fill: rgb(203, 169, 105);"/>
    <path class="st0" d="M266,398.4h-19.9l-7,10.8h-8.6l25.6-39.7l25.6,39.7H273L266,398.4z M250.4,391.8h11.4l-5.7-8.8L250.4,391.8z" style="fill: rgb(203, 169, 105);"/>
    <path class="st0" d="M296.6,409.3v-40.1l35.9,28.2v-25.2h7.2v39.9l-35.9-27.7v24.9H296.6z" style="fill: rgb(203, 169, 105);"/>
    <path class="st0" d="M360.6,409.3v-37.1h7.2v37.1H360.6z" style="fill: rgb(203, 169, 105);"/>
    <path class="st0" d="M412.8,404c6.8,0,13.4-3.1,17.6-8.4v9.7c-5,3.4-11.1,5.3-17.6,5.3c-14.4,0-26-8.9-26-19.9&#10;&#9;&#9;c0-11,11.6-19.9,26-19.9c6.5,0,12.7,2,17.6,5.4v9.8c-4.2-5.2-10.8-8.5-17.6-8.5c-10.2,0-18.5,5.9-18.5,13.3&#10;&#9;&#9;C394.3,398.1,402.6,404,412.8,404z" style="fill: rgb(203, 169, 105);"/>
    <path class="st0" d="M509.6,409.3h-26v-37.1h22.3c6.8,0,15.5,1.5,15.5,10.4c0,2-1.1,4.2-2.5,5.7c3.3,1.8,5.7,5.7,5.7,9.4&#10;&#9;&#9;C524.6,406,516.5,409.3,509.6,409.3z M490.8,378.8v7.4h16.3c2.7,0,6.6-0.5,6.6-3.5c0-3.7-4.8-3.9-8-3.9H490.8z M509.4,402.6&#10;&#9;&#9;c3.3,0,7.6-0.8,7.6-4.8c0-4-4.1-5-7.4-5h-18.8v9.8H509.4z" style="fill: rgb(203, 169, 105);"/>
    <path class="st0" d="M542.6,372.2h36.9v6.6h-29.6v7.7h24.9v6.6h-25v9.4h29.6v6.6h-36.9V372.2z" style="fill: rgb(203, 169, 105);"/>
    <path class="st0" d="M627.6,398.4h-19.9l-7,10.8h-8.6l25.6-39.7l25.6,39.7h-8.6L627.6,398.4z M612,391.8h11.4l-5.7-8.8L612,391.8z" style="fill: rgb(203, 169, 105);"/>
    <path class="st0" d="M686.5,372.2h7.2v20.1c0,12.7-10.2,18.3-20.3,18.3c-10.2,0-20.2-5.6-20.2-18.3v-20.1h7.2v19.1&#10;&#9;&#9;c0,8.7,6.4,12.6,13,12.6s13-3.9,13-12.6V372.2z" style="fill: rgb(203, 169, 105);"/>
    <path class="st0" d="M708,378.8v-6.6h43.1v6.6h-17.9v30.4h-7.2v-30.4H708z" style="fill: rgb(203, 169, 105);"/>
    <path class="st0" d="M786.1,386.7l15.1-14.5h10.4l-21.9,21.1v15.9h-7.2v-15.9l-21.8-21.1h10.4L786.1,386.7z" style="fill: rgb(203, 169, 105);"/>
  </g>
  <path class="st0" d="M 165.665 53.979 C 154.465 77.079 133.865 93.479 107.165 93.479 C 86.165 93.479 69.565 85.379 57.065 67.779 C 44.565 50.179 41.665 30.579 41.665 30.579 L 192.165 -23.721 C 172.165 -62.021 141.765 -77.221 107.265 -77.221 C 57.865 -77.221 17.665 -40.421 17.665 12.379 C 17.665 65.179 59.565 102.379 109.065 102.379 C 144.065 102.379 172.565 83.679 187.265 54.079 L 165.665 54.079 Z M 107.165 -66.621 C 129.765 -66.621 147.965 -51.921 159.865 -34.921 L 39.365 12.279 C 39.365 -30.421 66.165 -66.621 107.165 -66.621 Z" style="fill: url(#gradient-2); paint-order: fill markers;"/>
  <path class="st0" d="M 472.665 53.979 C 461.465 77.079 440.865 93.479 414.165 93.479 C 393.165 93.479 376.565 85.379 364.065 67.779 C 351.565 50.179 348.665 30.579 348.665 30.579 L 499.165 -23.721 C 479.165 -62.021 448.765 -77.221 414.265 -77.221 C 364.865 -77.221 324.665 -40.421 324.665 12.379 C 324.665 65.179 366.565 102.379 416.065 102.379 C 451.065 102.379 479.565 83.679 494.265 54.079 L 472.665 54.079 Z M 414.165 -66.621 C 436.765 -66.621 454.965 -51.921 466.865 -34.921 L 346.365 12.279 C 346.365 -30.421 373.165 -66.621 414.165 -66.621 Z" style="fill: url(#gradient-5); paint-order: fill markers;"/>
  <polygon class="st0" points="810.8,333.8 44.6,333.8 48.3,327.1 814.5,327.1 " transform="matrix(1, 0, 0, 1, -312.7352443320109, -194.32081907095323)" style="fill: rgb(203, 169, 105);"/>
  <polygon class="st0" points="547.6,489.3 310.3,489.3 311.5,482.5 548.8,482.5 " transform="matrix(1, 0, 0, 1, -312.7352443320109, -194.32081907095323)" style="fill: rgb(203, 169, 105);"/>
  <g transform="matrix(1, 0, 0, 1, -312.7352443320109, -194.32081907095323)">
    <path class="st0" d="M209.2,575.5c-4.4,0-8.9-1-11.2-2.6v-4c2,1.7,6.8,3.5,11.3,3.5c5.1,0,8.4-1.9,8.4-3.8&#10;&#9;&#9;c0-5.9-20.2-1.5-20.2-11.2c0-4.5,5.9-6.5,11.4-6.5c4,0,8.1,0.7,10.1,2.2v3.7c-2.6-1.9-6.3-2.8-10.5-2.8c-2.3,0-7.2,0.7-7.2,3.4&#10;&#9;&#9;c0,6.1,20.1,1.9,20.1,10.9C221.4,573.6,215.3,575.5,209.2,575.5z" style="fill: rgb(203, 169, 105);"/>
    <path class="st0" d="M244.4,554.7v-3.1h27v3.1h-11.7v19.9h-3.5v-19.9H244.4z" style="fill: rgb(203, 169, 105);"/>
    <path class="st0" d="M311.3,550.8c9.1,0,16.4,5.6,16.4,12.4s-7.3,12.4-16.4,12.4c-9.1,0-16.4-5.5-16.4-12.4&#10;&#9;&#9;S302.2,550.8,311.3,550.8z M311.3,572.4c7,0,12.7-4.1,12.7-9.3c0-5.2-5.7-9.3-12.7-9.3c-7,0-12.7,4.2-12.7,9.3&#10;&#9;&#9;C298.6,568.3,304.3,572.4,311.3,572.4z" style="fill: rgb(203, 169, 105);"/>
    <path class="st0" d="M369.7,572.4c4.6,0,8.7-1.7,10.9-4.4v4.3c-2.9,2-6.7,3.1-10.9,3.1c-9.1,0-16.4-5.5-16.4-12.4&#10;&#9;&#9;s7.3-12.4,16.4-12.4c4.2,0,8,1.2,10.9,3.2v4.4c-2.2-2.7-6.3-4.5-10.9-4.5c-7,0-12.7,4.2-12.7,9.3&#10;&#9;&#9;C357,568.3,362.6,572.4,369.7,572.4z" style="fill: rgb(203, 169, 105);"/>
    <path class="st0" d="M411.5,574.7H408v-23h3.5v11.6l13.4-11.6h4.6l-8.7,7.6l12.5,15.4h-4.2l-11.2-13.1l-6.4,5.4V574.7z" style="fill: rgb(203, 169, 105);"/>
    <path class="st0" d="M481.7,563.8h-20.1v10.8h-3.5v-23h3.5v9.1h20.1v-9.1h3.5v23h-3.5V563.8z" style="fill: rgb(203, 169, 105);"/>
    <path class="st0" d="M528.2,550.8c9.1,0,16.4,5.6,16.4,12.4s-7.3,12.4-16.4,12.4c-9.1,0-16.4-5.5-16.4-12.4&#10;&#9;&#9;S519.1,550.8,528.2,550.8z M528.2,572.4c7,0,12.7-4.1,12.7-9.3c0-5.2-5.7-9.3-12.7-9.3c-7,0-12.7,4.2-12.7,9.3&#10;&#9;&#9;C515.5,568.3,521.2,572.4,528.2,572.4z" style="fill: rgb(203, 169, 105);"/>
    <path class="st0" d="M574.7,571.6h18.9v3.1h-22.4v-23h3.5V571.6z" style="fill: rgb(203, 169, 105);"/>
    <path class="st0" d="M619.4,574.7h-3.7l8.8-24.3l12.5,19.1l12.5-19.1l8.8,24.3h-3.8l-6-16.6L637,575.8L625.5,558L619.4,574.7z" style="fill: rgb(203, 169, 105);"/>
  </g>
</svg>