<?xml version="1.0" encoding="utf-8"?>
<!-- Generator: Adobe Illustrator 19.0.0, SVG Export Plug-In . SVG Version: 6.00 Build 0)  -->
<svg version="1.1" id="Lager_1" xmlns="http://www.w3.org/2000/svg" xmlns:xlink="http://www.w3.org/1999/xlink" x="0px" y="0px"
	 viewBox="79 111.5 769.9 571.5" style="enable-background:new 79 111.5 769.9 571.5;" xml:space="preserve">
<style type="text/css">
	.st0{stroke:url(#SVGID_1_);stroke-width:10;stroke-miterlimit:10;}
	.st1{stroke:url(#SVGID_2_);stroke-width:10;stroke-miterlimit:10;}
	.st2{stroke:url(#SVGID_3_);stroke-width:10;stroke-miterlimit:10;}
	.st3{stroke:url(#SVGID_4_);stroke-width:10;stroke-miterlimit:10;}
	.st4{fill:url(#SVGID_5_);stroke:url(#SVGID_6_);stroke-width:3;stroke-miterlimit:10;}
	.st5{fill:url(#SVGID_7_);stroke:url(#SVGID_8_);stroke-width:3;stroke-miterlimit:10;}
	.st6{fill:url(#SVGID_9_);stroke:url(#SVGID_10_);stroke-width:3;stroke-miterlimit:10;}
	.st7{fill:url(#SVGID_11_);stroke:url(#SVGID_12_);stroke-width:3;stroke-miterlimit:10;}
	.st8{fill:url(#SVGID_13_);stroke:url(#SVGID_14_);stroke-width:3;stroke-miterlimit:10;}
	.st9{fill:url(#SVGID_15_);stroke:url(#SVGID_16_);stroke-width:3;stroke-miterlimit:10;}
	.st10{fill:url(#SVGID_17_);stroke:url(#SVGID_18_);stroke-width:3;stroke-miterlimit:10;}
	.st11{fill:url(#SVGID_19_);stroke:url(#SVGID_20_);stroke-width:3;stroke-miterlimit:10;}
	.st12{fill:url(#SVGID_21_);stroke:url(#SVGID_22_);stroke-width:3;stroke-miterlimit:10;}
	.st13{fill:url(#SVGID_23_);stroke:url(#SVGID_24_);stroke-width:3;stroke-miterlimit:10;}
	.st14{fill:url(#SVGID_25_);stroke:url(#SVGID_26_);stroke-width:3;stroke-miterlimit:10;}
	.st15{fill:url(#SVGID_27_);stroke:url(#SVGID_28_);stroke-width:3;stroke-miterlimit:10;}
	.st16{fill:url(#SVGID_29_);stroke:url(#SVGID_30_);stroke-width:3;stroke-miterlimit:10;}
	.st17{stroke:url(#SVGID_31_);stroke-width:10;stroke-miterlimit:10;}
	.st18{stroke:url(#SVGID_32_);stroke-width:10;stroke-miterlimit:10;}
	.st19{fill:url(#SVGID_33_);stroke:url(#SVGID_34_);stroke-width:10;stroke-miterlimit:10;}
</style>
<linearGradient id="SVGID_1_" gradientUnits="userSpaceOnUse" x1="85.8407" y1="318.9995" x2="203.9356" y2="318.9995">
	<stop  offset="0" style="stop-color:#5F3533"/>
	<stop  offset="0.2245" style="stop-color:#CB9B51"/>
	<stop  offset="0.45" style="stop-color:#F6E27A"/>
	<stop  offset="0.5" style="stop-color:#F6F2C0"/>
	<stop  offset="0.55" style="stop-color:#F6E27A"/>
	<stop  offset="0.7806" style="stop-color:#CB9B51"/>
	<stop  offset="1" style="stop-color:#5F3533"/>
</linearGradient>
<path class="st0" d="M90.841,464.235V188.549l21.563-11.633v279.296h69.351l9.13,8.223L90.841,464.235z"/>
<linearGradient id="SVGID_2_" gradientUnits="userSpaceOnUse" x1="171.8975" y1="374.7298" x2="356.1481" y2="374.7298">
	<stop  offset="0" style="stop-color:#5F3533"/>
	<stop  offset="0.2245" style="stop-color:#CB9B51"/>
	<stop  offset="0.45" style="stop-color:#F6E27A"/>
	<stop  offset="0.5" style="stop-color:#F6F2C0"/>
	<stop  offset="0.55" style="stop-color:#F6E27A"/>
	<stop  offset="0.7806" style="stop-color:#CB9B51"/>
	<stop  offset="1" style="stop-color:#5F3533"/>
</linearGradient>
<path class="st1" d="M264.023,464.887c-48.079,0-87.125-37.306-87.125-90.357s39.046-89.956,87.125-89.956
	s87.125,36.905,87.125,89.956S312.199,464.887,264.023,464.887z M264.023,295.203c-39.823,0-60.706,36.404-60.706,79.326
	c0,42.822,20.786,81.532,60.706,81.532c39.92,0,60.706-38.71,60.706-81.532C324.729,331.607,303.943,295.203,264.023,295.203z"/>
<linearGradient id="SVGID_3_" gradientUnits="userSpaceOnUse" x1="566.4705" y1="321.1175" x2="598.5189" y2="321.1175">
	<stop  offset="0" style="stop-color:#5F3533"/>
	<stop  offset="0.2245" style="stop-color:#CB9B51"/>
	<stop  offset="0.45" style="stop-color:#F6E27A"/>
	<stop  offset="0.5" style="stop-color:#F6F2C0"/>
	<stop  offset="0.55" style="stop-color:#F6E27A"/>
	<stop  offset="0.7806" style="stop-color:#CB9B51"/>
	<stop  offset="1" style="stop-color:#5F3533"/>
</linearGradient>
<path class="st2" d="M571.471,466.241V186.644l22.048-10.329v280.599L571.471,466.241z"/>
<linearGradient id="SVGID_4_" gradientUnits="userSpaceOnUse" x1="617.334" y1="320.7071" x2="649.4796" y2="320.7071">
	<stop  offset="0" style="stop-color:#5F3533"/>
	<stop  offset="0.2245" style="stop-color:#CB9B51"/>
	<stop  offset="0.45" style="stop-color:#F6E27A"/>
	<stop  offset="0.5" style="stop-color:#F6F2C0"/>
	<stop  offset="0.55" style="stop-color:#F6E27A"/>
	<stop  offset="0.7806" style="stop-color:#CB9B51"/>
	<stop  offset="1" style="stop-color:#5F3533"/>
</linearGradient>
<path class="st3" d="M622.334,465.99V184.388l22.146-9.026v281.402L622.334,465.99z"/>
<g transform="matrix(1, 0, 0, 1, -312.7352443320109, -194.32081907095323)">
	
		<linearGradient id="SVGID_5_" gradientUnits="userSpaceOnUse" x1="746.8229" y1="262.094" x2="746.8229" y2="222.1803" gradientTransform="matrix(1 0 0 -1 -312.7352 991.3208)">
		<stop  offset="0" style="stop-color:#000000"/>
		<stop  offset="1" style="stop-color:#000000"/>
	</linearGradient>
	<linearGradient id="SVGID_6_" gradientUnits="userSpaceOnUse" x1="407.3336" y1="749.1837" x2="460.8416" y2="749.1837">
		<stop  offset="0" style="stop-color:#5F3533"/>
		<stop  offset="0.2245" style="stop-color:#CB9B51"/>
		<stop  offset="0.45" style="stop-color:#F6E27A"/>
		<stop  offset="0.5" style="stop-color:#F6F2C0"/>
		<stop  offset="0.55" style="stop-color:#F6E27A"/>
		<stop  offset="0.7806" style="stop-color:#CB9B51"/>
		<stop  offset="1" style="stop-color:#5F3533"/>
	</linearGradient>
	<path class="st4" d="M434.088,729.227c13.987,0,25.254,9.026,25.254,19.957c0,11.031-11.267,19.957-25.254,19.957
		c-13.987,0-25.254-8.925-25.254-19.957C408.737,738.253,420.101,729.227,434.088,729.227z M434.088,762.522
		c9.907,0,17.969-5.817,17.969-13.238s-7.965-13.338-17.969-13.338c-9.907,0-17.969,5.917-17.969,13.338
		C416.119,756.605,424.181,762.522,434.088,762.522z"/>
	
		<linearGradient id="SVGID_7_" gradientUnits="userSpaceOnUse" x1="808.7433" y1="260.69" x2="808.7433" y2="223.484" gradientTransform="matrix(1 0 0 -1 -312.7352 991.3208)">
		<stop  offset="0" style="stop-color:#000000"/>
		<stop  offset="1" style="stop-color:#000000"/>
	</linearGradient>
	<linearGradient id="SVGID_8_" gradientUnits="userSpaceOnUse" x1="475.325" y1="749.2338" x2="517.8912" y2="749.2338">
		<stop  offset="0" style="stop-color:#5F3533"/>
		<stop  offset="0.2245" style="stop-color:#CB9B51"/>
		<stop  offset="0.45" style="stop-color:#F6E27A"/>
		<stop  offset="0.5" style="stop-color:#F6F2C0"/>
		<stop  offset="0.55" style="stop-color:#F6E27A"/>
		<stop  offset="0.7806" style="stop-color:#CB9B51"/>
		<stop  offset="1" style="stop-color:#5F3533"/>
	</linearGradient>
	<path class="st5" d="M483.818,767.837h-6.993v-37.206h21.854c6.605,0,14.181,2.607,14.181,10.63c0,5.716-3.594,8.625-7.965,9.928
		l10.296,16.547h-8.353l-9.713-15.745h-13.307L483.818,767.837L483.818,767.837z M483.818,745.373h14.181
		c5.439,0,7.382-1.404,7.382-4.112c0-2.607-2.04-4.011-7.382-4.011h-14.181C483.818,737.25,483.818,745.373,483.818,745.373z"/>
	
		<linearGradient id="SVGID_9_" gradientUnits="userSpaceOnUse" x1="865.0299" y1="262.0939" x2="865.0299" y2="222.1802" gradientTransform="matrix(1 0 0 -1 -312.7352 991.3208)">
		<stop  offset="0" style="stop-color:#000000"/>
		<stop  offset="1" style="stop-color:#000000"/>
	</linearGradient>
	<linearGradient id="SVGID_10_" gradientUnits="userSpaceOnUse" x1="526.9979" y1="749.1837" x2="577.5915" y2="749.1837">
		<stop  offset="0" style="stop-color:#5F3533"/>
		<stop  offset="0.2245" style="stop-color:#CB9B51"/>
		<stop  offset="0.45" style="stop-color:#F6E27A"/>
		<stop  offset="0.5" style="stop-color:#F6F2C0"/>
		<stop  offset="0.55" style="stop-color:#F6E27A"/>
		<stop  offset="0.7806" style="stop-color:#CB9B51"/>
		<stop  offset="1" style="stop-color:#5F3533"/>
	</linearGradient>
	<path class="st6" d="M576.091,750.989c0,12.235-10.102,18.152-22.34,18.152c-13.987,0-25.254-8.925-25.254-19.957
		s11.267-19.957,25.254-19.957c6.313,0,12.335,2.006,17.095,5.415v9.828c-4.079-5.215-10.49-8.524-17.095-8.524
		c-9.907,0-17.969,5.917-17.969,13.338s7.965,13.238,17.969,13.238c6.216,0,13.404-1.905,14.667-6.819h-10.976v-6.619h18.552v1.905
		H576.091z"/>
	
		<linearGradient id="SVGID_11_" gradientUnits="userSpaceOnUse" x1="923.6962" y1="263.3977" x2="923.6962" y2="223.5843" gradientTransform="matrix(1 0 0 -1 -312.7352 991.3208)">
		<stop  offset="0" style="stop-color:#000000"/>
		<stop  offset="1" style="stop-color:#000000"/>
	</linearGradient>
	<linearGradient id="SVGID_12_" gradientUnits="userSpaceOnUse" x1="583.3905" y1="747.164" x2="638.5316" y2="747.164">
		<stop  offset="0" style="stop-color:#5F3533"/>
		<stop  offset="0.2245" style="stop-color:#CB9B51"/>
		<stop  offset="0.45" style="stop-color:#F6E27A"/>
		<stop  offset="0.5" style="stop-color:#F6F2C0"/>
		<stop  offset="0.55" style="stop-color:#F6E27A"/>
		<stop  offset="0.7806" style="stop-color:#CB9B51"/>
		<stop  offset="1" style="stop-color:#5F3533"/>
	</linearGradient>
	<path class="st7" d="M620.577,756.906h-19.329l-6.799,10.831h-8.353l24.865-39.813l24.865,39.813h-8.45L620.577,756.906z
		 M605.425,750.287h11.073l-5.536-8.825L605.425,750.287z"/>
	
		<linearGradient id="SVGID_13_" gradientUnits="userSpaceOnUse" x1="983.9652" y1="263.6985" x2="983.9652" y2="220.676" gradientTransform="matrix(1 0 0 -1 -312.7352 991.3208)">
		<stop  offset="0" style="stop-color:#000000"/>
		<stop  offset="1" style="stop-color:#000000"/>
	</linearGradient>
	<linearGradient id="SVGID_14_" gradientUnits="userSpaceOnUse" x1="648.7985" y1="749.116" x2="693.6614" y2="749.116">
		<stop  offset="0" style="stop-color:#5F3533"/>
		<stop  offset="0.2245" style="stop-color:#CB9B51"/>
		<stop  offset="0.45" style="stop-color:#F6E27A"/>
		<stop  offset="0.5" style="stop-color:#F6F2C0"/>
		<stop  offset="0.55" style="stop-color:#F6E27A"/>
		<stop  offset="0.7806" style="stop-color:#CB9B51"/>
		<stop  offset="1" style="stop-color:#5F3533"/>
	</linearGradient>
	<path class="st8" d="M650.299,767.837v-40.215l34.87,28.281v-25.272h6.993v40.014l-34.87-27.779v24.971L650.299,767.837
		L650.299,767.837z"/>
	
		<linearGradient id="SVGID_15_" gradientUnits="userSpaceOnUse" x1="1028.6934" y1="260.69" x2="1028.6934" y2="223.484" gradientTransform="matrix(1 0 0 -1 -312.7352 991.3208)">
		<stop  offset="0" style="stop-color:#000000"/>
		<stop  offset="1" style="stop-color:#000000"/>
	</linearGradient>
	<linearGradient id="SVGID_16_" gradientUnits="userSpaceOnUse" x1="710.9615" y1="749.2338" x2="720.9548" y2="749.2338">
		<stop  offset="0" style="stop-color:#5F3533"/>
		<stop  offset="0.2245" style="stop-color:#CB9B51"/>
		<stop  offset="0.45" style="stop-color:#F6E27A"/>
		<stop  offset="0.5" style="stop-color:#F6F2C0"/>
		<stop  offset="0.55" style="stop-color:#F6E27A"/>
		<stop  offset="0.7806" style="stop-color:#CB9B51"/>
		<stop  offset="1" style="stop-color:#5F3533"/>
	</linearGradient>
	<path class="st9" d="M712.461,767.837v-37.206h6.993v37.206H712.461z"/>
	
		<linearGradient id="SVGID_17_" gradientUnits="userSpaceOnUse" x1="1071.819" y1="262.0939" x2="1071.819" y2="222.1802" gradientTransform="matrix(1 0 0 -1 -312.7352 991.3208)">
		<stop  offset="0" style="stop-color:#000000"/>
		<stop  offset="1" style="stop-color:#000000"/>
	</linearGradient>
	<linearGradient id="SVGID_18_" gradientUnits="userSpaceOnUse" x1="736.4094" y1="749.1837" x2="781.758" y2="749.1837">
		<stop  offset="0" style="stop-color:#5F3533"/>
		<stop  offset="0.2245" style="stop-color:#CB9B51"/>
		<stop  offset="0.45" style="stop-color:#F6E27A"/>
		<stop  offset="0.5" style="stop-color:#F6F2C0"/>
		<stop  offset="0.55" style="stop-color:#F6E27A"/>
		<stop  offset="0.7806" style="stop-color:#CB9B51"/>
		<stop  offset="1" style="stop-color:#5F3533"/>
	</linearGradient>
	<path class="st10" d="M763.163,762.522c6.605,0,13.015-3.109,17.095-8.424v9.728c-4.857,3.41-10.781,5.315-17.095,5.315
		c-13.987,0-25.254-8.925-25.254-19.957s11.267-19.957,25.254-19.957c6.313,0,12.336,2.006,17.095,5.415v9.828
		c-4.079-5.215-10.49-8.524-17.095-8.524c-9.907,0-17.969,5.917-17.969,13.338C745.194,756.605,753.256,762.522,763.163,762.522z"/>
	
		<linearGradient id="SVGID_19_" gradientUnits="userSpaceOnUse" x1="1164.5778" y1="260.69" x2="1164.5778" y2="223.484" gradientTransform="matrix(1 0 0 -1 -312.7352 991.3208)">
		<stop  offset="0" style="stop-color:#000000"/>
		<stop  offset="1" style="stop-color:#000000"/>
	</linearGradient>
	<linearGradient id="SVGID_20_" gradientUnits="userSpaceOnUse" x1="830.431" y1="749.2338" x2="873.2542" y2="749.2338">
		<stop  offset="0" style="stop-color:#5F3533"/>
		<stop  offset="0.2245" style="stop-color:#CB9B51"/>
		<stop  offset="0.45" style="stop-color:#F6E27A"/>
		<stop  offset="0.5" style="stop-color:#F6F2C0"/>
		<stop  offset="0.55" style="stop-color:#F6E27A"/>
		<stop  offset="0.7806" style="stop-color:#CB9B51"/>
		<stop  offset="1" style="stop-color:#5F3533"/>
	</linearGradient>
	<path class="st11" d="M857.185,767.837h-25.254v-37.206h21.66c6.605,0,15.055,1.504,15.055,10.43c0,2.006-1.068,4.212-2.428,5.716
		c3.205,1.805,5.536,5.716,5.536,9.427C871.754,764.527,863.887,767.837,857.185,767.837z M838.924,737.25v7.421h15.832
		c2.622,0,6.411-0.501,6.411-3.51c0-3.711-4.662-3.911-7.77-3.911H838.924z M856.99,761.118c3.205,0,7.382-0.802,7.382-4.814
		s-3.982-5.014-7.188-5.014h-18.26v9.828H856.99z"/>
	
		<linearGradient id="SVGID_21_" gradientUnits="userSpaceOnUse" x1="1219.8445" y1="260.6899" x2="1219.8445" y2="223.6845" gradientTransform="matrix(1 0 0 -1 -312.7352 991.3208)">
		<stop  offset="0" style="stop-color:#000000"/>
		<stop  offset="1" style="stop-color:#000000"/>
	</linearGradient>
	<linearGradient id="SVGID_22_" gradientUnits="userSpaceOnUse" x1="887.6403" y1="749.1336" x2="926.5783" y2="749.1336">
		<stop  offset="0" style="stop-color:#5F3533"/>
		<stop  offset="0.2245" style="stop-color:#CB9B51"/>
		<stop  offset="0.45" style="stop-color:#F6E27A"/>
		<stop  offset="0.5" style="stop-color:#F6F2C0"/>
		<stop  offset="0.55" style="stop-color:#F6E27A"/>
		<stop  offset="0.7806" style="stop-color:#CB9B51"/>
		<stop  offset="1" style="stop-color:#5F3533"/>
	</linearGradient>
	<path class="st12" d="M889.237,730.631h35.841v6.619h-28.75v7.722h24.185v6.619h-24.282v9.427h28.75v6.619H889.14v-37.005H889.237z
		"/>
	
		<linearGradient id="SVGID_23_" gradientUnits="userSpaceOnUse" x1="1274.917" y1="263.3977" x2="1274.917" y2="223.5843" gradientTransform="matrix(1 0 0 -1 -312.7352 991.3208)">
		<stop  offset="0" style="stop-color:#000000"/>
		<stop  offset="1" style="stop-color:#000000"/>
	</linearGradient>
	<linearGradient id="SVGID_24_" gradientUnits="userSpaceOnUse" x1="934.6113" y1="747.164" x2="989.7523" y2="747.164">
		<stop  offset="0" style="stop-color:#5F3533"/>
		<stop  offset="0.2245" style="stop-color:#CB9B51"/>
		<stop  offset="0.45" style="stop-color:#F6E27A"/>
		<stop  offset="0.5" style="stop-color:#F6F2C0"/>
		<stop  offset="0.55" style="stop-color:#F6E27A"/>
		<stop  offset="0.7806" style="stop-color:#CB9B51"/>
		<stop  offset="1" style="stop-color:#5F3533"/>
	</linearGradient>
	<path class="st13" d="M971.798,756.906h-19.329l-6.799,10.831h-8.353l24.865-39.813l24.865,39.813h-8.353L971.798,756.906z
		 M956.645,750.287h11.073l-5.536-8.825L956.645,750.287z"/>
	
		<linearGradient id="SVGID_25_" gradientUnits="userSpaceOnUse" x1="1329.0668" y1="260.6899" x2="1329.0668" y2="222.1802" gradientTransform="matrix(1 0 0 -1 -312.7352 991.3208)">
		<stop  offset="0" style="stop-color:#000000"/>
		<stop  offset="1" style="stop-color:#000000"/>
	</linearGradient>
	<linearGradient id="SVGID_26_" gradientUnits="userSpaceOnUse" x1="995.1628" y1="749.8857" x2="1037.5004" y2="749.8857">
		<stop  offset="0" style="stop-color:#5F3533"/>
		<stop  offset="0.2245" style="stop-color:#CB9B51"/>
		<stop  offset="0.45" style="stop-color:#F6E27A"/>
		<stop  offset="0.5" style="stop-color:#F6F2C0"/>
		<stop  offset="0.55" style="stop-color:#F6E27A"/>
		<stop  offset="0.7806" style="stop-color:#CB9B51"/>
		<stop  offset="1" style="stop-color:#5F3533"/>
	</linearGradient>
	<path class="st14" d="M1029.007,730.631H1036v20.157c0,12.736-9.907,18.352-19.717,18.352c-9.907,0-19.62-5.616-19.62-18.352
		v-20.157h6.993v19.155c0,8.725,6.216,12.636,12.627,12.636s12.627-3.911,12.627-12.636v-19.155H1029.007z"/>
	
		<linearGradient id="SVGID_27_" gradientUnits="userSpaceOnUse" x1="1383.5565" y1="260.69" x2="1383.5565" y2="223.5843" gradientTransform="matrix(1 0 0 -1 -312.7352 991.3208)">
		<stop  offset="0" style="stop-color:#000000"/>
		<stop  offset="1" style="stop-color:#000000"/>
	</linearGradient>
	<linearGradient id="SVGID_28_" gradientUnits="userSpaceOnUse" x1="1048.3899" y1="749.1837" x2="1093.2527" y2="749.1837">
		<stop  offset="0" style="stop-color:#5F3533"/>
		<stop  offset="0.2245" style="stop-color:#CB9B51"/>
		<stop  offset="0.45" style="stop-color:#F6E27A"/>
		<stop  offset="0.5" style="stop-color:#F6F2C0"/>
		<stop  offset="0.55" style="stop-color:#F6E27A"/>
		<stop  offset="0.7806" style="stop-color:#CB9B51"/>
		<stop  offset="1" style="stop-color:#5F3533"/>
	</linearGradient>
	<path class="st15" d="M1049.89,737.25v-6.619h41.863v6.619h-17.386v30.487h-6.993V737.25H1049.89z"/>
	
		<linearGradient id="SVGID_29_" gradientUnits="userSpaceOnUse" x1="1438.5319" y1="260.6899" x2="1438.5319" y2="223.5842" gradientTransform="matrix(1 0 0 -1 -312.7352 991.3208)">
		<stop  offset="0" style="stop-color:#000000"/>
		<stop  offset="1" style="stop-color:#000000"/>
	</linearGradient>
	<linearGradient id="SVGID_30_" gradientUnits="userSpaceOnUse" x1="1097.4541" y1="749.1837" x2="1154.1509" y2="749.1837">
		<stop  offset="0" style="stop-color:#5F3533"/>
		<stop  offset="0.2245" style="stop-color:#CB9B51"/>
		<stop  offset="0.45" style="stop-color:#F6E27A"/>
		<stop  offset="0.5" style="stop-color:#F6F2C0"/>
		<stop  offset="0.55" style="stop-color:#F6E27A"/>
		<stop  offset="0.7806" style="stop-color:#CB9B51"/>
		<stop  offset="1" style="stop-color:#5F3533"/>
	</linearGradient>
	<path class="st16" d="M1125.748,745.172l14.667-14.541h10.101l-21.271,21.16v15.945h-6.993v-15.945l-21.174-21.16h10.102
		L1125.748,745.172z"/>
</g>
<linearGradient id="SVGID_31_" gradientUnits="userSpaceOnUse" x1="369.1395" y1="377.5378" x2="550.6163" y2="377.5378">
	<stop  offset="0" style="stop-color:#5F3533"/>
	<stop  offset="0.2245" style="stop-color:#CB9B51"/>
	<stop  offset="0.45" style="stop-color:#F6E27A"/>
	<stop  offset="0.5" style="stop-color:#F6F2C0"/>
	<stop  offset="0.55" style="stop-color:#F6E27A"/>
	<stop  offset="0.7806" style="stop-color:#CB9B51"/>
	<stop  offset="1" style="stop-color:#5F3533"/>
</linearGradient>
<path class="st17" d="M538.75,419.219c-0.261,0-0.508-0.022-0.748-0.054c-3.903,0.014-19.949,0.072-20.2,0.075
	c-10.898,23.068-30.867,39.428-56.731,39.428c-20.397,0-36.521-8.123-48.662-25.773c-12.141-17.65-14.958-37.306-14.958-37.306
	l146.18-54.455c-19.426-38.409-48.953-53.653-82.463-53.653c-47.982,0-87.028,36.905-87.028,89.856
	c0,52.951,40.697,90.257,88.776,90.257c33.949,0,61.6-18.704,75.895-48.318c0.007-0.021,0.016-0.042,0.024-0.062
	C538.806,419.215,538.779,419.219,538.75,419.219z M461.071,298.112c21.951,0,39.629,14.742,51.187,31.791l-117.041,47.335
	C395.217,334.415,421.247,298.112,461.071,298.112z"/>
<linearGradient id="SVGID_32_" gradientUnits="userSpaceOnUse" x1="659.3405" y1="377.5378" x2="840.8172" y2="377.5378">
	<stop  offset="0" style="stop-color:#5F3533"/>
	<stop  offset="0.2245" style="stop-color:#CB9B51"/>
	<stop  offset="0.45" style="stop-color:#F6E27A"/>
	<stop  offset="0.5" style="stop-color:#F6F2C0"/>
	<stop  offset="0.55" style="stop-color:#F6E27A"/>
	<stop  offset="0.7806" style="stop-color:#CB9B51"/>
	<stop  offset="1" style="stop-color:#5F3533"/>
</linearGradient>
<path class="st18" d="M828.951,419.219c-0.261,0-0.508-0.022-0.748-0.054c-3.903,0.014-19.949,0.072-20.2,0.075
	c-10.898,23.068-30.867,39.428-56.731,39.428c-20.397,0-36.521-8.123-48.662-25.773c-12.141-17.65-14.958-37.306-14.958-37.306
	l146.18-54.455c-19.426-38.409-48.953-53.653-82.463-53.653c-47.982,0-87.028,36.905-87.028,89.856
	c0,52.951,40.697,90.257,88.776,90.257c33.949,0,61.6-18.704,75.895-48.318c0.007-0.021,0.016-0.042,0.024-0.062
	C829.007,419.215,828.98,419.219,828.951,419.219z M751.271,298.112c21.951,0,39.629,14.742,51.187,31.791l-117.041,47.335
	C685.418,334.415,711.448,298.112,751.271,298.112z"/>
<linearGradient id="SVGID_33_" gradientUnits="userSpaceOnUse" x1="779.4324" y1="111.598" x2="779.4324" y2="104.8789" gradientTransform="matrix(1 0 0 -1 -312.7352 602.6792)">
	<stop  offset="0" style="stop-color:#000000"/>
	<stop  offset="1" style="stop-color:#000000"/>
</linearGradient>
<linearGradient id="SVGID_34_" gradientUnits="userSpaceOnUse" x1="84.452" y1="494.4408" x2="848.9423" y2="494.4408">
	<stop  offset="0" style="stop-color:#5F3533"/>
	<stop  offset="0.2245" style="stop-color:#CB9B51"/>
	<stop  offset="0.45" style="stop-color:#F6E27A"/>
	<stop  offset="0.5" style="stop-color:#F6F2C0"/>
	<stop  offset="0.55" style="stop-color:#F6E27A"/>
	<stop  offset="0.7806" style="stop-color:#CB9B51"/>
	<stop  offset="1" style="stop-color:#5F3533"/>
</linearGradient>
<polygon class="st19" points="837.004,497.8 92.797,497.8 96.39,491.081 840.598,491.081 "/>
</svg>
