<?xml version="1.0" encoding="utf-8"?>
<svg viewBox="-277.5787353515625 -190.02099609375 779.34375 341" xmlns="http://www.w3.org/2000/svg">
  <defs>
    <pattern id="pattern-0" x="0" y="0" width="20" height="20" patternUnits="userSpaceOnUse" viewBox="0 0 100 100">
      <path d="M 0 0 L 50 0 L 50 100 L 0 100 Z" style="fill: black;"/>
    </pattern>
  </defs>
  <path class="st0" d="M48.3,290.8V15.9L70.5,4.3v278.5h71.4l9.4,8.2L48.3,290.8z" transform="matrix(1, 0, 0, 1, -312.7352443320109, -194.32081907095323)" style="fill: rgb(203, 169, 105);"/>
  <path class="st0" d="M219.3,294c-49.5,0-89.7-37.2-89.7-90.1s40.2-89.7,89.7-89.7c49.5,0,89.7,36.8,89.7,89.7S268.9,294,219.3,294z&#10;&#9; M219.3,124.8c-41,0-62.5,36.3-62.5,79.1c0,42.7,21.4,81.3,62.5,81.3s62.5-38.6,62.5-81.3C281.8,161.1,260.4,124.8,219.3,124.8z" transform="matrix(1, 0, 0, 1, -312.7352443320109, -194.32081907095323)" style="fill: rgb(203, 169, 105);"/>
  <path class="st0" d="M533.5,295.1V16.3L556.2,6v279.8L533.5,295.1z" transform="matrix(1, 0, 0, 1, -312.7352443320109, -194.32081907095323)" style="fill: rgb(203, 169, 105);"/>
  <path class="st0" d="M588.2,295.1V14.3l22.8-9v280.6L588.2,295.1z" transform="matrix(1, 0, 0, 1, -312.7352443320109, -194.32081907095323)" style="fill: rgb(203, 169, 105);"/>
  <g transform="matrix(1, 0, 0, 1, -312.7352443320109, -194.32081907095323)">
    <path class="st0" d="M74,370.8c14.4,0,26,9,26,19.9c0,11-11.6,19.9-26,19.9c-14.4,0-26-8.9-26-19.9C47.9,379.8,59.6,370.8,74,370.8&#10;&#9;&#9;z M74,404c10.2,0,18.5-5.8,18.5-13.2c0-7.4-8.2-13.3-18.5-13.3c-10.2,0-18.5,5.9-18.5,13.3C55.5,398.1,63.8,404,74,404z" style="fill: rgb(203, 169, 105);"/>
    <path class="st0" d="M125.2,409.3H118v-37.1h22.5c6.8,0,14.6,2.6,14.6,10.6c0,5.7-3.7,8.6-8.2,9.9l10.6,16.5h-8.6l-10-15.7h-13.7&#10;&#9;&#9;V409.3z M125.2,386.9h14.6c5.6,0,7.6-1.4,7.6-4.1c0-2.6-2.1-4-7.6-4h-14.6V386.9z" style="fill: rgb(203, 169, 105);"/>
    <path class="st0" d="M220.2,392.5c0,12.2-10.4,18.1-23,18.1c-14.4,0-26-8.9-26-19.9c0-11,11.6-19.9,26-19.9c6.5,0,12.7,2,17.6,5.4&#10;&#9;&#9;v9.8c-4.2-5.2-10.8-8.5-17.6-8.5c-10.2,0-18.5,5.9-18.5,13.3c0,7.4,8.2,13.2,18.5,13.2c6.4,0,13.8-1.9,15.1-6.8H201v-6.6h19.1&#10;&#9;&#9;V392.5z" style="fill: rgb(203, 169, 105);"/>
    <path class="st0" d="M266,398.4h-19.9l-7,10.8h-8.6l25.6-39.7l25.6,39.7H273L266,398.4z M250.4,391.8h11.4l-5.7-8.8L250.4,391.8z" style="fill: rgb(203, 169, 105);"/>
    <path class="st0" d="M296.6,409.3v-40.1l35.9,28.2v-25.2h7.2v39.9l-35.9-27.7v24.9H296.6z" style="fill: rgb(203, 169, 105);"/>
    <path class="st0" d="M360.6,409.3v-37.1h7.2v37.1H360.6z" style="fill: rgb(203, 169, 105);"/>
    <path class="st0" d="M412.8,404c6.8,0,13.4-3.1,17.6-8.4v9.7c-5,3.4-11.1,5.3-17.6,5.3c-14.4,0-26-8.9-26-19.9&#10;&#9;&#9;c0-11,11.6-19.9,26-19.9c6.5,0,12.7,2,17.6,5.4v9.8c-4.2-5.2-10.8-8.5-17.6-8.5c-10.2,0-18.5,5.9-18.5,13.3&#10;&#9;&#9;C394.3,398.1,402.6,404,412.8,404z" style="fill: rgb(203, 169, 105);"/>
    <path class="st0" d="M509.6,409.3h-26v-37.1h22.3c6.8,0,15.5,1.5,15.5,10.4c0,2-1.1,4.2-2.5,5.7c3.3,1.8,5.7,5.7,5.7,9.4&#10;&#9;&#9;C524.6,406,516.5,409.3,509.6,409.3z M490.8,378.8v7.4h16.3c2.7,0,6.6-0.5,6.6-3.5c0-3.7-4.8-3.9-8-3.9H490.8z M509.4,402.6&#10;&#9;&#9;c3.3,0,7.6-0.8,7.6-4.8c0-4-4.1-5-7.4-5h-18.8v9.8H509.4z" style="fill: rgb(203, 169, 105);"/>
    <path class="st0" d="M542.6,372.2h36.9v6.6h-29.6v7.7h24.9v6.6h-25v9.4h29.6v6.6h-36.9V372.2z" style="fill: rgb(203, 169, 105);"/>
    <path class="st0" d="M627.6,398.4h-19.9l-7,10.8h-8.6l25.6-39.7l25.6,39.7h-8.6L627.6,398.4z M612,391.8h11.4l-5.7-8.8L612,391.8z" style="fill: rgb(203, 169, 105);"/>
    <path class="st0" d="M686.5,372.2h7.2v20.1c0,12.7-10.2,18.3-20.3,18.3c-10.2,0-20.2-5.6-20.2-18.3v-20.1h7.2v19.1&#10;&#9;&#9;c0,8.7,6.4,12.6,13,12.6s13-3.9,13-12.6V372.2z" style="fill: rgb(203, 169, 105);"/>
    <path class="st0" d="M708,378.8v-6.6h43.1v6.6h-17.9v30.4h-7.2v-30.4H708z" style="fill: rgb(203, 169, 105);"/>
    <path class="st0" d="M786.1,386.7l15.1-14.5h10.4l-21.9,21.1v15.9h-7.2v-15.9l-21.8-21.1h10.4L786.1,386.7z" style="fill: rgb(203, 169, 105);"/>
  </g>
  <path class="st0" d="M478.4,248.3c-11.2,23.1-31.8,39.5-58.5,39.5c-21,0-37.6-8.1-50.1-25.7s-15.4-37.2-15.4-37.2l150.5-54.3&#10;&#9;c-20-38.3-50.4-53.5-84.9-53.5c-49.4,0-89.6,36.8-89.6,89.6c0,52.8,41.9,90,91.4,90c35,0,63.5-18.7,78.2-48.3H478.4z M419.9,127.7&#10;&#9;c22.6,0,40.8,14.7,52.7,31.7l-120.5,47.2C352.1,163.9,378.9,127.7,419.9,127.7z" transform="matrix(1, 0, 0, 1, -312.7352443320109, -194.32081907095323)" style="fill: rgb(203, 169, 105);"/>
  <path class="st0" d="M785.4,248.3c-11.2,23.1-31.8,39.5-58.5,39.5c-21,0-37.6-8.1-50.1-25.7c-12.5-17.6-15.4-37.2-15.4-37.2&#10;&#9;l150.5-54.3c-20-38.3-50.4-53.5-84.9-53.5c-49.4,0-89.6,36.8-89.6,89.6c0,52.8,41.9,90,91.4,90c35,0,63.5-18.7,78.2-48.3H785.4z&#10;&#9; M726.9,127.7c22.6,0,40.8,14.7,52.7,31.7l-120.5,47.2C659.1,163.9,685.9,127.7,726.9,127.7z" transform="matrix(1, 0, 0, 1, -312.7352443320109, -194.32081907095323)" style="fill: rgb(203, 169, 105);"/>
  <polygon class="st0" points="816.466 341.354 46.488 341.354 42.634 327.1 818.278 325.211" transform="matrix(1 0 0 1 -312.735 -194.321)" style="fill: rgb(203, 169, 105);"/>
  <polygon class="st0" points="547.6,489.3 310.3,489.3 311.5,482.5 548.8,482.5 " transform="matrix(1, 0, 0, 1, -312.7352443320109, -194.32081907095323)" style="fill: rgb(203, 169, 105);"/>
  <g transform="matrix(1, 0, 0, 1, -312.7352443320109, -194.32081907095323)">
    <path class="st0" d="M209.2,575.5c-4.4,0-8.9-1-11.2-2.6v-4c2,1.7,6.8,3.5,11.3,3.5c5.1,0,8.4-1.9,8.4-3.8&#10;&#9;&#9;c0-5.9-20.2-1.5-20.2-11.2c0-4.5,5.9-6.5,11.4-6.5c4,0,8.1,0.7,10.1,2.2v3.7c-2.6-1.9-6.3-2.8-10.5-2.8c-2.3,0-7.2,0.7-7.2,3.4&#10;&#9;&#9;c0,6.1,20.1,1.9,20.1,10.9C221.4,573.6,215.3,575.5,209.2,575.5z" style="fill: rgb(203, 169, 105);"/>
    <path class="st0" d="M244.4,554.7v-3.1h27v3.1h-11.7v19.9h-3.5v-19.9H244.4z" style="fill: rgb(203, 169, 105);"/>
    <path class="st0" d="M311.3,550.8c9.1,0,16.4,5.6,16.4,12.4s-7.3,12.4-16.4,12.4c-9.1,0-16.4-5.5-16.4-12.4&#10;&#9;&#9;S302.2,550.8,311.3,550.8z M311.3,572.4c7,0,12.7-4.1,12.7-9.3c0-5.2-5.7-9.3-12.7-9.3c-7,0-12.7,4.2-12.7,9.3&#10;&#9;&#9;C298.6,568.3,304.3,572.4,311.3,572.4z" style="fill: rgb(203, 169, 105);"/>
    <path class="st0" d="M369.7,572.4c4.6,0,8.7-1.7,10.9-4.4v4.3c-2.9,2-6.7,3.1-10.9,3.1c-9.1,0-16.4-5.5-16.4-12.4&#10;&#9;&#9;s7.3-12.4,16.4-12.4c4.2,0,8,1.2,10.9,3.2v4.4c-2.2-2.7-6.3-4.5-10.9-4.5c-7,0-12.7,4.2-12.7,9.3&#10;&#9;&#9;C357,568.3,362.6,572.4,369.7,572.4z" style="fill: rgb(203, 169, 105);"/>
    <path class="st0" d="M411.5,574.7H408v-23h3.5v11.6l13.4-11.6h4.6l-8.7,7.6l12.5,15.4h-4.2l-11.2-13.1l-6.4,5.4V574.7z" style="fill: rgb(203, 169, 105);"/>
    <path class="st0" d="M481.7,563.8h-20.1v10.8h-3.5v-23h3.5v9.1h20.1v-9.1h3.5v23h-3.5V563.8z" style="fill: rgb(203, 169, 105);"/>
    <path class="st0" d="M528.2,550.8c9.1,0,16.4,5.6,16.4,12.4s-7.3,12.4-16.4,12.4c-9.1,0-16.4-5.5-16.4-12.4&#10;&#9;&#9;S519.1,550.8,528.2,550.8z M528.2,572.4c7,0,12.7-4.1,12.7-9.3c0-5.2-5.7-9.3-12.7-9.3c-7,0-12.7,4.2-12.7,9.3&#10;&#9;&#9;C515.5,568.3,521.2,572.4,528.2,572.4z" style="fill: rgb(203, 169, 105);"/>
    <path class="st0" d="M574.7,571.6h18.9v3.1h-22.4v-23h3.5V571.6z" style="fill: rgb(203, 169, 105);"/>
    <path class="st0" d="M619.4,574.7h-3.7l8.8-24.3l12.5,19.1l12.5-19.1l8.8,24.3h-3.8l-6-16.6L637,575.8L625.5,558L619.4,574.7z" style="fill: rgb(203, 169, 105);"/>
  </g>
</svg>